# xmcd
#
# Track frame offsets:
#	150
#	10755
#	23331
#	35601
#	49856
#	60998
#	74745
#	87427
#	103911
#	116391
#	129108
#	140214
#	152923
#
# Disc length: 2176 seconds
#
# Revision: 0
# Processed by: cddbd v1.5.1PL0 Copyright (c) Steve Scherf et al.
# Submitted via: dBpowerAMP V4.0
#
DISCID=ac087e0d
DTITLE=Randy Travis - Heroes And Friends
DYEAR=1990
DGENRE=Country
TTITLE0=Heroes And Friends
TTITLE1=Do I Ever Cross Your Mind  with Dolly Parton
TTITLE2=Birth Of The Blues  with Willie Nelson
TTITLE3=All Night Long  with Merle Haggard
TTITLE4=The Human Race  with Vern Gosdin
TTITLE5=Shopping For Dresses  with Loretta Lynn
TTITLE6=Waiting On The Light To Change  with B.B. King
TTITLE7=A Few Ole Country Boys  with George Jones
TTITLE8=Walk Our Own Road  with Kris Kristofferson
TTITLE9=We're Strangers Again  with Tammy Wynette
TTITLE10=Smokin' The Hive  with Clint Eastwood
TTITLE11=Come See About Me  with Conway Twitty
TTITLE12=Happy Trails  with Roy Rogers
EXTD=
EXTT0=
EXTT1=
EXTT2=
EXTT3=
EXTT4=
EXTT5=
EXTT6=
EXTT7=
EXTT8=
EXTT9=
EXTT10=
EXTT11=
EXTT12=
PLAYORDER=
